<?xml version="1.0" encoding="UTF-8"?><svg id="Layer_1" xmlns="http://www.w3.org/2000/svg" width="3.03in" height="1.21in" viewBox="0 0 218.14 86.87"><defs><style>.cls-1{fill:#002360;}</style></defs><g><g><path class="cls-1" d="m16.2,54.85l-.68-2.79c-.5-1.77-1.06-2.17-4.5-2.2h-.09v16.26c0,.31.19.43,1.09.53l1.71.16.09,1.15H4.5l.09-1.15,1.71-.16c.81-.09,1.09-.28,1.09-.56v-16.23h-.09c-3.29,0-4.07.25-4.59,1.99l-.81,3.01H0l.56-6.3h17.41v6.3h-1.77Z"/><path class="cls-1" d="m24.49,68.41c-3.66,0-6.36-2.95-6.36-6.98,0-4.59,3.23-7.95,7.39-7.95,2.98,0,5.06,1.83,5.06,4.75,0,.5-.06,1.18-.19,1.71l-9.03-.12v.34c.03,3.48,1.92,5.8,4.59,5.8,1.37,0,2.79-.56,3.85-1.8l.65.37c-1.09,2.48-3.23,3.88-5.96,3.88Zm.4-13.66c-1.61,0-3.17,1.4-3.48,4.03,0,0,5.99-.03,5.9-.03.12-2.51-.87-4-2.42-4Z"/><path class="cls-1" d="m42.84,68.47c-1.21,0-2.17-.74-2.27-2.45h-.16c-1.12,1.33-2.33,2.39-3.94,2.39-1.99,0-3.79-1.46-3.79-3.63,0-2.58,2.51-4.07,7.88-5.37v-.28c.03-3.04-1.15-4-3.04-4-1.02,0-2.2.4-2.2.65,0,.16.74.71.74,1.64,0,.74-.65,1.55-1.74,1.55-1.02,0-1.74-.68-1.74-1.55,0-1.68,3.54-3.94,6.39-3.94,3.51,0,4.87,1.46,4.69,6.27l-.22,5.18c-.06.87.19,1.27.71,1.27.4,0,.87-.28,1.49-.74l.53.74c-.96,1.27-2.17,2.27-3.35,2.27Zm-2.33-7.98c-3.88.99-4.78,2.2-4.78,3.51s1.02,2.17,2.14,2.17c.9,0,1.71-.5,2.51-1.24l.12-4.44Z"/><path class="cls-1" d="m53.11,68.41c-3.69,0-6.39-2.95-6.39-6.98,0-4.62,3.38-7.95,7.54-7.95,2.98,0,4.62,1.46,4.62,3.1,0,1.37-.99,1.77-1.89,1.77-1.3,0-2.11-1.49-1.77-3.07v-.06c-.37-.25-.9-.4-1.49-.4-2.08,0-3.76,1.83-3.76,5.15s1.89,5.99,4.56,5.99c1.37,0,2.79-.56,3.85-1.8l.65.37c-1.09,2.48-3.23,3.88-5.93,3.88Z"/><path class="cls-1" d="m68.96,67.95l.09-1.15.68-.09c.9-.06,1.06-.28,1.06-.59v-6.27c0-3.07-.96-3.91-2.76-3.91-1.18,0-2.39.59-3.1,1.15v9.06c0,.31.19.5,1.18.56l.96.09.09,1.15h-7.26l.09-1.15.81-.09c.74-.06,1.06-.22,1.06-.59v-15.74c0-.47-.16-.74-.43-.9l-1.86-.81.09-.84,5.28-1.52v9.44h.16c1.64-1.33,3.35-2.27,5.03-2.27.93,0,1.92.34,2.61,1.02.81.84,1.18,1.99,1.18,3.54v8.07c0,.28.16.47,1.27.59l.71.09.09,1.15h-7.01Z"/><path class="cls-1" d="m82.92,68.41c-3.66,0-6.36-2.95-6.36-6.98,0-4.59,3.23-7.95,7.39-7.95,2.98,0,5.06,1.83,5.06,4.75,0,.5-.06,1.18-.19,1.71l-9.03-.12v.34c.03,3.48,1.92,5.8,4.59,5.8,1.37,0,2.79-.56,3.85-1.8l.65.37c-1.09,2.48-3.23,3.88-5.96,3.88Zm.4-13.66c-1.61,0-3.17,1.4-3.48,4.03,0,0,5.99-.03,5.9-.03.12-2.51-.87-4-2.42-4Z"/><path class="cls-1" d="m100.38,57.33c-.81,0-1.4-.5-1.77-1.12-.87.53-2.08,1.58-2.89,3.07v6.86c0,.31.19.5,1.18.56l1.12.09.09,1.15h-7.45l.09-1.15.81-.09c.74-.06,1.06-.22,1.06-.59v-7.64c0-1.96-.25-2.23-1.33-2.55l-.68-.16.03-.9,5.09-1.4v3.94h.16c1.55-2.58,2.64-3.94,4.19-3.94,1.27,0,2.02.81,2.02,1.99,0,1.02-.59,1.86-1.71,1.86Z"/><path class="cls-1" d="m108.14,68.41c-1.61,0-3.29-.25-4.5-.71l-.16-4.1h1.83l.74,2.76c.65.43,1.52.78,2.39.78,1.37,0,2.79-.9,2.79-2.33s-1.68-1.99-3.45-2.64c-2.17-.84-4.22-1.74-4.22-4.47,0-2.23,1.89-4.25,5.25-4.25,1.43,0,2.42.25,3.23.53l1.15-.4.19,4.53h-1.74l-.74-2.67c-.62-.43-1.49-.68-2.27-.68-1.37,0-2.39.81-2.39,1.96,0,1.4,1.18,1.86,3.29,2.67,2.14.81,4.35,1.77,4.35,4.47,0,2.45-2.05,4.56-5.74,4.56Z"/><path class="cls-1" d="m141.16,67.95l-1.8-.34c-1.18.4-3.01.81-4.9.81-6.21,0-10.93-3.51-10.93-9.93s4.81-10.37,11.02-10.37c1.89,0,3.66.4,4.47.68l2.67-.56v6.61h-1.8l-1.06-4.22c-1.18-.68-2.42-1.12-4.25-1.12-4.41,0-7.14,3.57-7.14,8.54,0,5.4,2.64,9.03,7.39,9.03,1.24,0,2.61-.31,3.63-.87l1.46-4.44h1.89l-.65,6.18Z"/><path class="cls-1" d="m151.06,68.41c-4.31,0-6.95-3.29-6.95-7.39s3.32-7.54,7.57-7.54,6.95,3.2,6.95,7.14c0,4.28-3.23,7.79-7.57,7.79Zm2.58-12.51c-.43-.47-1.21-1.05-2.39-1.05-2.11,0-3.72,1.99-3.72,5.31,0,2.51.43,4.72,1.55,5.9.43.43,1.24,1.02,2.42,1.02,2.05,0,3.69-2.02,3.69-5.31,0-2.48-.47-4.75-1.55-5.87Z"/><path class="cls-1" d="m159.47,67.95l.09-1.15.81-.09c.74-.06,1.06-.22,1.06-.59v-15.74c0-.47-.12-.74-.43-.9l-1.83-.81.09-.84,5.28-1.52v19.83c0,.31.19.5,1.18.56l.78.09.09,1.15h-7.11Z"/><path class="cls-1" d="m168.19,67.95l.09-1.15.81-.09c.74-.06,1.06-.22,1.06-.59v-15.74c0-.47-.12-.74-.43-.9l-1.83-.81.09-.84,5.28-1.52v19.83c0,.31.19.5,1.18.56l.78.09.09,1.15h-7.11Z"/><path class="cls-1" d="m182.75,68.41c-3.66,0-6.36-2.95-6.36-6.98,0-4.59,3.23-7.95,7.39-7.95,2.98,0,5.06,1.83,5.06,4.75,0,.5-.06,1.18-.19,1.71l-9.03-.12v.34c.03,3.48,1.92,5.8,4.59,5.8,1.37,0,2.79-.56,3.85-1.8l.65.37c-1.09,2.48-3.23,3.88-5.96,3.88Zm.4-13.66c-1.61,0-3.17,1.4-3.48,4.03,0,0,5.99-.03,5.9-.03.12-2.51-.87-4-2.42-4Z"/><path class="cls-1" d="m201.76,56v.16c.37.56.71,1.24.71,2.23,0,2.95-2.42,5.18-5.8,5.18-.62,0-1.3-.09-1.83-.22-.4.19-1.12.78-1.12,1.33,0,.84.78,1.4,1.99,1.4,1.3,0,2.7-.09,3.76-.09,2.58,0,4.56,1.83,4.56,4.25,0,3.26-3.35,5.77-8.26,5.77-3.38,0-5.62-1.43-5.62-3.63,0-1.89,1.33-2.89,3.01-3.54v-.12c-1.27-.31-2.14-1.37-2.14-2.48,0-1.27,1.15-2.51,2.67-3.07,0-.16.09-.16.09-.16-1.58-.71-2.76-2.05-2.76-4.31,0-2.86,2.23-5.21,5.8-5.21,1.49,0,2.7.37,3.82.9h4.38l-.03,2.17-3.23-.56Zm-3.1,13c-1.02-.09-2.17,0-4.22,0-.5.22-1.58,1.12-1.58,2.48,0,1.89,1.74,3.2,4.38,3.2,2.45,0,4.16-1.37,4.16-3.13,0-1.46-.71-2.39-2.73-2.55Zm-.25-13.66c-.47-.43-.99-.68-1.61-.68-1.58,0-2.67,1.33-2.67,3.6,0,1.55.43,2.79,1.18,3.54.4.37.9.62,1.43.62.74,0,1.33-.22,1.77-.62.62-.59.93-1.65.93-3.17s-.34-2.61-1.02-3.29Z"/><path class="cls-1" d="m212.06,68.41c-3.66,0-6.36-2.95-6.36-6.98,0-4.59,3.23-7.95,7.39-7.95,2.98,0,5.06,1.83,5.06,4.75,0,.5-.06,1.18-.19,1.71l-9.03-.12v.34c.03,3.48,1.92,5.8,4.59,5.8,1.37,0,2.79-.56,3.85-1.8l.65.37c-1.09,2.48-3.23,3.88-5.96,3.88Zm.4-13.66c-1.61,0-3.17,1.4-3.48,4.03,0,0,5.99-.03,5.9-.03.12-2.51-.87-4-2.42-4Z"/></g><g><path class="cls-1" d="m35.65,85.62c-1.12-.99-1.42-2.27-1.42-3.38,0-.78.24-2.13,1.34-3.14.82-.76,1.91-1.21,3.62-1.21.71,0,1.13.05,1.66.11.44.06.84.16,1.18.19.13.01.14.07.14.14,0,.09-.03.23-.06.63-.02.38-.01,1.01-.03,1.24-.01.17-.03.27-.14.27-.09,0-.11-.1-.11-.26-.01-.35-.16-.76-.45-1.05-.38-.4-1.27-.71-2.33-.71-1,0-1.65.25-2.15.71-.84.77-1.05,1.86-1.05,2.97,0,2.73,2.07,4.08,3.61,4.08,1.02,0,1.64-.11,2.1-.64.2-.22.34-.55.39-.76.03-.18.06-.23.15-.23.08,0,.1.08.1.17,0,.14-.14,1.13-.25,1.52-.06.19-.1.25-.3.33-.46.18-1.33.26-2.06.26-1.57,0-2.89-.34-3.93-1.25Z"/><path class="cls-1" d="m43.33,82.38c0-1.96,1.29-4.49,4.73-4.49,2.85,0,4.63,1.66,4.63,4.28s-1.83,4.7-4.74,4.7c-3.29,0-4.62-2.46-4.62-4.49Zm7.76.22c0-2.57-1.48-4.16-3.36-4.16-1.32,0-2.82.73-2.82,3.59,0,2.38,1.32,4.27,3.52,4.27.8,0,2.66-.39,2.66-3.7Z"/><path class="cls-1" d="m56.21,83.38c0,1.47,0,2.26.24,2.46.2.17.49.25,1.39.25.61,0,1.05-.01,1.34-.32.14-.15.28-.47.3-.69.01-.1.03-.17.13-.17.08,0,.09.06.09.19,0,.13-.08.99-.17,1.32-.07.25-.13.31-.72.31-1.05,0-2.11-.07-3.33-.07-.46,0-.93.03-1.44.03-.15,0-.23-.03-.23-.11,0-.06.05-.09.18-.09.17,0,.31-.02.41-.05.23-.05.29-.3.33-.63.06-.48.06-1.39.06-2.44v-2.02c0-1.74,0-2.06-.02-2.43-.02-.39-.11-.57-.49-.65-.09-.02-.23-.03-.38-.03-.13,0-.19-.02-.19-.1s.08-.1.25-.1c.54,0,1.26.03,1.57.03.28,0,1.11-.03,1.56-.03.16,0,.24.02.24.1s-.07.1-.21.1c-.13,0-.31.01-.45.03-.31.06-.4.25-.42.65-.02.37-.02.69-.02,2.43v2.02Z"/><path class="cls-1" d="m62.41,82.97c0,1.66.33,2.36.89,2.82.52.42,1.04.47,1.43.47.5,0,1.12-.16,1.58-.62.63-.63.66-1.66.66-2.84v-1.43c0-1.74,0-2.06-.02-2.43-.02-.39-.11-.57-.49-.65-.09-.02-.29-.03-.41-.03s-.2-.02-.2-.1.08-.1.24-.1c.58,0,1.31.03,1.32.03.14,0,.86-.03,1.31-.03.16,0,.24.02.24.1s-.07.1-.21.1c-.13,0-.19.01-.33.03-.31.06-.4.25-.42.65-.02.37-.02.69-.02,2.43v1.23c0,1.27-.13,2.62-1.09,3.45-.81.7-1.64.82-2.38.82-.61,0-1.71-.03-2.54-.79-.58-.53-1.02-1.37-1.02-3.04v-1.67c0-1.74,0-2.06-.02-2.43-.02-.39-.11-.57-.49-.65-.09-.02-.29-.03-.45-.03-.13,0-.2-.02-.2-.1s.08-.1.25-.1c.61,0,1.33.03,1.67.03.27,0,1-.03,1.41-.03.17,0,.25.02.25.1s-.07.1-.18.1c-.13,0-.19.01-.33.03-.31.06-.4.25-.42.65-.02.37-.02.69-.02,2.43v1.6Z"/><path class="cls-1" d="m79.41,85.23c.1.72.22,1.05.56,1.16.33.1.56.11.71.11.1,0,.18.01.18.08,0,.09-.14.13-.3.13-.29,0-1.87-.03-2.33-.07-.26-.02-.33-.06-.33-.13,0-.06.05-.09.13-.13.07-.02.1-.17.06-.49l-.7-5.11-2.53,5.27c-.26.54-.32.64-.42.64s-.22-.23-.4-.57c-.28-.53-1.18-2.28-1.32-2.6-.1-.24-.82-1.76-1.23-2.62l-.61,4.64c-.02.21-.03.35-.03.54,0,.22.15.32.34.37.21.05.37.06.48.06.09,0,.17.02.17.08,0,.1-.1.13-.27.13-.48,0-1-.03-1.2-.03-.22,0-.77.03-1.13.03-.11,0-.21-.02-.21-.13,0-.06.07-.08.18-.08.09,0,.17,0,.34-.03.32-.07.41-.52.47-.9l1.13-7.47c.03-.19.1-.3.2-.3s.16.06.31.36l3.13,6.46,3.12-6.54c.09-.18.15-.27.25-.27s.17.11.21.36l1.04,7.08Z"/><path class="cls-1" d="m82.9,81.37c0-1.74,0-2.06-.02-2.43-.02-.39-.11-.57-.49-.65-.09-.02-.29-.03-.45-.03-.13,0-.19-.02-.19-.1s.08-.1.25-.1c.61,0,1.33.03,1.56.03.56,0,1.01-.03,1.4-.03,2.07,0,2.44,1.11,2.44,1.72,0,.94-.54,1.5-1.17,2,.94.32,2.09,1.13,2.09,2.47,0,1.23-.95,2.5-3.06,2.5-.53,0-1.05-.07-1.66-.07-.46,0-.93.03-1.44.03-.15,0-.23-.03-.23-.11,0-.06.05-.09.18-.09.17,0,.33-.02.44-.06.22-.07.26-.29.31-.62.06-.48.06-1.39.06-2.44v-2.02Zm1.38.2c0,.09.03.11.08.13.1.02.27.03.54.03.38,0,.63-.05.82-.22.3-.24.47-.65.47-1.21,0-.77-.45-1.78-1.43-1.78-.16,0-.26,0-.38.02-.08.02-.1.07-.1.19v2.83Zm0,1.56v1.87c0,.76.03.95.4,1.1.31.13.57.14.84.14.52,0,1.39-.27,1.39-1.47,0-.71-.24-1.67-1.11-2.28-.24-.17-.5-.25-.95-.27-.21-.01-.32-.01-.49-.01-.05,0-.07.02-.07.08v.85Z"/><path class="cls-1" d="m90.33,81.37c0-1.74,0-2.06-.02-2.43-.02-.39-.14-.58-.39-.64-.13-.03-.27-.05-.41-.05-.11,0-.18-.02-.18-.11,0-.07.09-.09.28-.09.44,0,1.16.03,1.49.03.29,0,.96-.03,1.4-.03.15,0,.24.02.24.09,0,.09-.07.11-.18.11s-.21.01-.34.03c-.31.06-.4.25-.42.65-.02.37-.02.69-.02,2.43v2.02c0,1.11,0,2.02.05,2.51.03.31.11.52.46.56.16.02.41.05.58.05.13,0,.18.03.18.09,0,.08-.09.11-.22.11-.76,0-1.48-.03-1.79-.03-.26,0-.99.03-1.44.03-.15,0-.23-.03-.23-.11,0-.06.05-.09.18-.09.17,0,.31-.02.41-.05.23-.05.3-.24.33-.57.06-.48.06-1.39.06-2.5v-2.02Z"/><path class="cls-1" d="m96.63,83.72c-.06,0-.08.02-.1.09l-.62,1.64c-.11.29-.17.56-.17.7,0,.21.1.35.46.35h.17c.14,0,.17.02.17.09,0,.09-.07.11-.19.11-.37,0-.86-.03-1.21-.03-.13,0-.76.03-1.35.03-.15,0-.22-.02-.22-.11,0-.07.07-.09.16-.09.1,0,.24-.01.33-.02.53-.07.74-.46.97-1.03l2.88-7.19c.14-.33.22-.46.32-.46.09,0,.17.1.29.37.27.63,2.11,5.3,2.84,7.05.44,1.03.77,1.19,1.01,1.25.17.03.34.05.48.05.09,0,.15.02.15.09,0,.09-.1.11-.53.11s-1.33,0-2.25-.02c-.21-.01-.26-.02-.26-.09,0-.06.05-.09.16-.1.08-.02.16-.13.1-.26l-.92-2.43c-.02-.06-.06-.08-.11-.08h-2.55Zm2.34-.57c.06,0,.07-.03.06-.07l-1.03-2.83c-.03-.1-.08-.14-.13,0l-1.05,2.82s0,.08.05.08h2.11Z"/><path class="cls-1" d="m108.61,82.97c0,1.66.33,2.36.89,2.82.52.42,1.04.47,1.43.47.5,0,1.12-.16,1.58-.62.63-.63.66-1.66.66-2.84v-1.43c0-1.74,0-2.06-.02-2.43-.02-.39-.11-.57-.49-.65-.09-.02-.29-.03-.41-.03s-.2-.02-.2-.1.08-.1.24-.1c.58,0,1.31.03,1.32.03.14,0,.86-.03,1.31-.03.16,0,.24.02.24.1s-.07.1-.21.1c-.13,0-.19.01-.33.03-.31.06-.4.25-.42.65-.02.37-.02.69-.02,2.43v1.23c0,1.27-.13,2.62-1.09,3.45-.81.7-1.64.82-2.38.82-.61,0-1.71-.03-2.54-.79-.58-.53-1.02-1.37-1.02-3.04v-1.67c0-1.74,0-2.06-.02-2.43-.02-.39-.11-.57-.49-.65-.09-.02-.29-.03-.45-.03-.13,0-.2-.02-.2-.1s.08-.1.25-.1c.61,0,1.33.03,1.67.03.27,0,1-.03,1.41-.03.17,0,.25.02.25.1s-.07.1-.18.1c-.13,0-.19.01-.33.03-.31.06-.4.25-.42.65-.02.37-.02.69-.02,2.43v1.6Z"/><path class="cls-1" d="m116.8,78.24c0-.23.03-.39.15-.39.13,0,.23.15.42.36.14.15,1.88,2.02,3.55,3.68.78.78,2.38,2.49,2.58,2.67l-.11-5.2c-.01-.7-.11-.92-.39-1.03-.17-.07-.45-.07-.61-.07-.14,0-.18-.03-.18-.1,0-.09.13-.1.3-.1.6,0,1.15.03,1.39.03.13,0,.56-.03,1.12-.03.15,0,.26.01.26.1,0,.07-.07.1-.21.1-.11,0-.21,0-.34.03-.32.09-.41.33-.42.97-.05,2.42-.08,4.81-.13,7.23,0,.25-.05.36-.15.36-.13,0-.26-.13-.39-.25-.72-.69-2.19-2.19-3.38-3.37-1.25-1.24-2.55-2.7-2.76-2.92l.13,4.85c.02.89.17,1.19.4,1.27.19.07.41.08.6.08.13,0,.2.02.2.09,0,.09-.1.11-.26.11-.74,0-1.2-.03-1.42-.03-.1,0-.64.03-1.24.03-.15,0-.25-.01-.25-.11,0-.07.07-.09.18-.09.15,0,.35-.01.52-.06.3-.09.34-.42.36-1.42.03-2.43.08-5.26.1-6.78Z"/><path class="cls-1" d="m127.68,81.37c0-1.74,0-2.06-.02-2.43-.02-.39-.14-.58-.39-.64-.13-.03-.27-.05-.41-.05-.11,0-.18-.02-.18-.11,0-.07.09-.09.27-.09.44,0,1.16.03,1.49.03.29,0,.96-.03,1.4-.03.15,0,.24.02.24.09,0,.09-.07.11-.18.11s-.21.01-.34.03c-.31.06-.4.25-.42.65-.02.37-.02.69-.02,2.43v2.02c0,1.11,0,2.02.05,2.51.03.31.11.52.46.56.16.02.41.05.58.05.13,0,.18.03.18.09,0,.08-.09.11-.22.11-.76,0-1.48-.03-1.79-.03-.26,0-.99.03-1.44.03-.15,0-.23-.03-.23-.11,0-.06.05-.09.18-.09.17,0,.31-.02.41-.05.23-.05.3-.24.33-.57.06-.48.06-1.39.06-2.5v-2.02Z"/><path class="cls-1" d="m132.28,79.17c-.26-.63-.46-.76-.87-.87-.17-.05-.36-.05-.45-.05-.1,0-.14-.03-.14-.1,0-.09.13-.1.3-.1.61,0,1.26.03,1.66.03.29,0,.84-.03,1.41-.03.14,0,.26.02.26.1s-.07.1-.17.1c-.18,0-.36.01-.45.08-.08.06-.11.14-.11.24,0,.15.1.47.26.88.63,1.65,1.4,3.68,1.99,5.26.49-1.26,2-5.01,2.28-5.76.06-.15.1-.32.1-.42,0-.09-.05-.18-.15-.22-.14-.05-.31-.06-.46-.06-.1,0-.19-.01-.19-.09,0-.09.1-.11.32-.11.57,0,1.05.03,1.2.03.19,0,.73-.03,1.08-.03.15,0,.24.02.24.1s-.07.1-.18.1-.36,0-.56.14c-.15.1-.32.3-.63,1.03-.45,1.08-.76,1.7-1.37,3.1-.73,1.67-1.27,2.92-1.52,3.49-.3.66-.37.85-.53.85-.15,0-.22-.16-.44-.7l-2.89-7Z"/><path class="cls-1" d="m142.21,81.37c0-1.74,0-2.06-.02-2.43-.02-.39-.11-.57-.49-.65-.09-.02-.29-.03-.45-.03-.13,0-.19-.02-.19-.1s.08-.1.25-.1c.53,0,1.05.03,1.65.03.37,0,2.65,0,2.86-.01.22-.02.4-.05.49-.07.06-.01.13-.05.18-.05s.07.05.07.1c0,.08-.06.22-.09.74-.01.11-.03.62-.06.76-.01.06-.03.13-.11.13s-.1-.07-.1-.21c0-.05-.01-.23-.07-.37-.08-.21-.2-.34-.77-.41-.2-.02-1.4-.05-1.63-.05-.06,0-.08.03-.08.11v2.9c0,.08.01.13.08.13.25,0,1.57,0,1.83-.02.27-.02.45-.06.55-.17.08-.09.13-.15.18-.15.05,0,.08.02.08.09s-.05.25-.09.84c-.01.23-.05.69-.05.77,0,.09,0,.22-.1.22-.08,0-.1-.13-.1-.18-.01-.11-.01-.18-.05-.33-.06-.23-.22-.4-.64-.45-.22-.02-1.35-.03-1.63-.03-.06,0-.07.05-.07.11v.9c0,.39-.01,1.44,0,1.78.02.79.21.96,1.37.96.3,0,.78,0,1.08-.14.3-.14.44-.38.52-.85.02-.13.05-.17.13-.17.09,0,.09.09.09.21,0,.26-.09,1.04-.15,1.27-.08.3-.18.3-.62.3-1.02,0-2.03-.07-3.17-.07-.46,0-.93.03-1.44.03-.15,0-.23-.03-.23-.11,0-.06.05-.09.18-.09.17,0,.31-.02.41-.05.23-.05.29-.3.33-.63.06-.48.06-1.39.06-2.44v-2.02Z"/><path class="cls-1" d="m149.2,81.37c0-1.74,0-2.06-.02-2.43-.02-.39-.11-.57-.49-.65-.09-.02-.29-.03-.45-.03-.13,0-.19-.02-.19-.1s.08-.1.25-.1c.61,0,1.33.03,1.57.03.39,0,1.26-.03,1.62-.03.72,0,1.49.07,2.11.49.32.22.78.8.78,1.57,0,.85-.34,1.62-1.5,2.55,1.02,1.28,1.81,2.31,2.49,3.02.64.66,1.1.74,1.27.78.13.02.23.03.32.03s.14.03.14.09c0,.09-.08.11-.22.11h-1.12c-.64,0-.93-.06-1.23-.22-.49-.26-.93-.8-1.57-1.68-.46-.63-.99-1.41-1.13-1.58-.06-.07-.13-.08-.21-.08l-.96-.02c-.06,0-.09.02-.09.09v.16c0,1.07,0,1.97.06,2.45.03.33.1.58.45.63.17.02.42.05.56.05.09,0,.14.03.14.09,0,.08-.08.11-.23.11-.66,0-1.51-.03-1.68-.03-.22,0-.94.03-1.4.03-.15,0-.23-.03-.23-.11,0-.06.05-.09.18-.09.17,0,.31-.02.41-.05.23-.05.29-.3.33-.63.06-.48.06-1.39.06-2.44v-2.02Zm1.35.91c0,.13.02.17.1.21.24.08.58.11.87.11.46,0,.61-.05.81-.19.34-.25.68-.78.68-1.72,0-1.63-1.08-2.1-1.75-2.1-.29,0-.49.01-.61.05-.08.02-.1.07-.1.16v3.48Z"/><path class="cls-1" d="m157.76,86.57c-.18-.08-.22-.14-.22-.39,0-.63.05-1.32.06-1.5.01-.17.05-.3.14-.3.1,0,.11.1.11.19,0,.15.05.39.1.58.25.85.93,1.16,1.64,1.16,1.03,0,1.54-.7,1.54-1.31,0-.56-.17-1.09-1.12-1.83l-.53-.41c-1.26-.99-1.7-1.79-1.7-2.72,0-1.26,1.05-2.17,2.65-2.17.44,0,.78.05,1.05.09.2.03.34.07.47.1.1.02.16.06.16.14,0,.15-.05.48-.05,1.37,0,.25-.03.34-.13.34-.08,0-.11-.07-.11-.21,0-.1-.06-.46-.3-.76-.17-.22-.5-.56-1.25-.56-.85,0-1.36.49-1.36,1.18,0,.53.26.93,1.21,1.65l.32.24c1.39,1.04,1.88,1.83,1.88,2.92,0,.66-.25,1.45-1.08,1.99-.57.37-1.21.47-1.82.47-.66,0-1.18-.08-1.67-.3Z"/><path class="cls-1" d="m164.63,81.37c0-1.74,0-2.06-.02-2.43-.02-.39-.14-.58-.39-.64-.13-.03-.27-.05-.41-.05-.11,0-.18-.02-.18-.11,0-.07.09-.09.28-.09.44,0,1.16.03,1.49.03.29,0,.96-.03,1.4-.03.15,0,.24.02.24.09,0,.09-.07.11-.18.11s-.21.01-.34.03c-.31.06-.4.25-.42.65-.02.37-.02.69-.02,2.43v2.02c0,1.11,0,2.02.05,2.51.03.31.11.52.46.56.16.02.41.05.58.05.13,0,.18.03.18.09,0,.08-.09.11-.22.11-.76,0-1.48-.03-1.79-.03-.26,0-.99.03-1.44.03-.15,0-.23-.03-.23-.11,0-.06.05-.09.18-.09.17,0,.31-.02.41-.05.23-.05.3-.24.33-.57.06-.48.06-1.39.06-2.5v-2.02Z"/><path class="cls-1" d="m172.71,83.38c0,1.05,0,1.96.06,2.45.03.32.1.57.45.62.16.02.41.05.58.05.13,0,.18.03.18.09,0,.08-.09.11-.22.11-.76,0-1.48-.03-1.8-.03-.26,0-.99.03-1.44.03-.15,0-.23-.03-.23-.11,0-.06.05-.09.18-.09.17,0,.31-.02.41-.05.23-.05.3-.3.33-.63.06-.48.06-1.39.06-2.44v-4.7c-.44.01-1.15.03-1.71.05-.66.02-.94.08-1.11.33-.11.17-.17.31-.19.4s-.06.14-.13.14c-.08,0-.1-.06-.1-.18,0-.18.22-1.23.24-1.32.03-.15.07-.22.14-.22.09,0,.21.11.49.14.33.03.77.06,1.15.06h4.54c.37,0,.62-.03.79-.06.17-.03.26-.06.31-.06.08,0,.09.07.09.24,0,.24-.03,1.03-.03,1.33-.01.11-.03.18-.1.18-.09,0-.11-.06-.13-.23,0-.03-.01-.09-.01-.13-.02-.3-.33-.62-1.35-.64-.3-.01-.77-.02-1.44-.03v4.7Z"/><path class="cls-1" d="m179.95,83.74c0-.62-.11-.87-.26-1.2-.08-.18-1.62-2.7-2.02-3.3-.29-.42-.57-.71-.79-.84-.15-.08-.34-.15-.48-.15-.09,0-.17-.02-.17-.1,0-.07.08-.1.22-.1.21,0,1.07.03,1.44.03.24,0,.71-.03,1.23-.03.11,0,.17.03.17.1s-.08.08-.25.13c-.1.02-.16.11-.16.21s.06.23.14.39c.16.34,1.76,3.1,1.95,3.43.11-.27,1.56-2.8,1.72-3.15.11-.25.16-.45.16-.6,0-.11-.05-.24-.24-.29-.1-.02-.21-.05-.21-.11,0-.08.06-.1.2-.1.38,0,.74.03,1.08.03.25,0,1.01-.03,1.23-.03.13,0,.21.02.21.09,0,.08-.09.11-.22.11-.11,0-.33.05-.5.14-.24.11-.37.25-.62.56-.38.46-1.98,3.15-2.19,3.64-.17.41-.17.77-.17,1.15v.94c0,.18,0,.66.03,1.15.02.33.13.58.47.63.16.02.41.05.57.05.13,0,.18.03.18.09,0,.08-.09.11-.24.11-.72,0-1.44-.03-1.75-.03-.29,0-1.01.03-1.43.03-.16,0-.25-.02-.25-.11,0-.06.06-.09.18-.09.16,0,.3-.02.4-.05.23-.05.33-.3.35-.63.03-.48.03-.96.03-1.15v-.94Z"/></g></g><g><path class="cls-1" d="m109.07,41.27l-.27-.1c-22.18-7.96-19.87-37.95-19.85-38.25l.06-.74h.74C100.96,2.18,108.78.08,108.86.06l.21-.06.21.06c.08.02,7.9,2.13,19.1,2.13h.74l.06.74c.03.3,2.33,30.29-19.85,38.25l-.27.1ZM90.52,3.8c-.19,4.55-.28,28.76,18.55,35.75,18.83-6.99,18.74-31.21,18.55-35.75-10.13-.08-17.23-1.78-18.55-2.12-1.33.34-8.42,2.04-18.55,2.12Z"/><path class="cls-1" d="m121.62,7.79c-.03-.05-.08-.09-.14-.09-4.63,0-8.17-.76-12.41-1.79-4.24,1.02-7.79,1.78-12.41,1.79-.06,0-.12.03-.14.09l-.51.86.04.12.06.03c.22.09,1.93.62,2.59,2.39.17.45.43,1.67-.19,2.1-.18-.21-.45-.34-.74-.34-.53,0-.93.44-.93.97s.49.95,1.02.97c.07,0,1.12.1,2.12-1.37,1.04-1.53.31-3.41-.15-3.95.52.1,2.21.56,4.59.02,2.1-.48,2.91-.12,3.11-.04v3.55c-2.98.56-5.21,2.75-5.92,4.79-.6,1.76-1.63,2.53-2.19,2.83-.06.03-.1.1-.09.17s.05.13.12.15c.34.12,1.49.66,2.23,2.58.76,1.99,2.85,4.01,5.86,4.42v2.44c-1.19.18-2.03.59-2.51,1.22-.47.62-.38,1.23-.38,1.25,0,.41.34.75.77.75s.77-.35.77-.77c0-.14-.04-.27-.11-.39.29-.19.82-.3,1.27.11.64.58,2.81.58,3.45,0,.45-.41.98-.3,1.27-.11-.07.12-.11.25-.11.39,0,.43.35.77.77.77s.77-.35.77-.75c0-.03.09-.63-.38-1.25-.47-.63-1.31-1.04-2.51-1.22v-2.58c2.58-.59,4.07-2.23,4.89-3.61.54-.9.72-1.47.55-1.74-.05-.07-.15-.15-.58-.15-.5,0-.76.38-.91.61l-.06.09c-1.29,1.81-2.55,2.62-3.89,2.92v-11.25c3.31.55,3.99,3.27,4,3.3.02.14.07.34.17.56.23.52.63.81,1.15.84.75.03,1-.42,1.08-.72.07-.25.05-.51-.07-.71-.14-.22-.39-.39-.68-.44,0,0-.29-.06-.43-.29-.29-.51-.11-1.29.23-1.8.18-.28.45-.38.45-.38l.11-.04-.03-.11s-.26-.84-1.38-.54c-.36.09-.67.5-.82.72-.38-.4-1.67-1.59-3.77-2.02v-3.57c.21-.07,1.01-.44,3.11.04,2.38.55,4.07.08,4.59-.02-.46.54-1.19,2.42-.15,3.95,1,1.47,2.04,1.37,2.12,1.37.53-.02,1.02-.44,1.02-.97s-.4-.97-.93-.97c-.29,0-.55.13-.74.34-.62-.43-.35-1.65-.19-2.1.66-1.78,2.36-2.3,2.59-2.39l.06-.03.04-.12-.51-.86Zm-17.91,14.05c-.3-1.37-.05-3.48,1.19-5.09.68-.89,1.57-1.49,2.63-1.81v11.04c-1.87-.51-3.37-2.1-3.82-4.14Z"/></g></svg>